<svg width="145" height="236" viewBox="0 0 145 236" fill="none" xmlns="http://www.w3.org/2000/svg">
<rect x="20.5" y="16.5" width="104" height="38" rx="4.5" fill="white"/>
<path d="M37.358 29.228H39.738C40.8113 29.228 41.6607 29.4287 42.286 29.83C42.9207 30.2313 43.238 30.8613 43.238 31.72C43.238 32.2987 43.056 32.784 42.692 33.176C42.328 33.5587 41.8147 33.8153 41.152 33.946V33.974C41.8427 34.058 42.398 34.3053 42.818 34.716C43.2473 35.1173 43.462 35.6447 43.462 36.298C43.462 36.802 43.364 37.2267 43.168 37.572C42.972 37.908 42.706 38.1833 42.37 38.398C42.034 38.6127 41.642 38.7667 41.194 38.86C40.7553 38.9533 40.2933 39 39.808 39H37.358V29.228ZM38.52 33.484H39.472C39.8173 33.484 40.144 33.4607 40.452 33.414C40.7693 33.3673 41.0447 33.2833 41.278 33.162C41.5113 33.0407 41.6933 32.8727 41.824 32.658C41.964 32.4433 42.034 32.168 42.034 31.832C42.034 31.2347 41.8147 30.8147 41.376 30.572C40.9467 30.3293 40.354 30.208 39.598 30.208H38.52V33.484ZM38.52 38.034H39.612C40.4893 38.034 41.1473 37.894 41.586 37.614C42.034 37.3247 42.258 36.8673 42.258 36.242C42.258 35.6167 42.0293 35.1593 41.572 34.87C41.1147 34.5807 40.4053 34.436 39.444 34.436H38.52V38.034ZM50.4992 37.768C50.2379 38.1973 49.9019 38.538 49.4912 38.79C49.0899 39.0327 48.6185 39.154 48.0772 39.154C47.5825 39.154 47.1672 39.0747 46.8312 38.916C46.5045 38.7573 46.2432 38.538 46.0472 38.258C45.8512 37.978 45.7112 37.642 45.6272 37.25C45.5432 36.858 45.5012 36.4287 45.5012 35.962V31.874H46.6492V35.514C46.6492 35.9247 46.6679 36.2933 46.7052 36.62C46.7519 36.9467 46.8359 37.2313 46.9572 37.474C47.0785 37.7073 47.2512 37.8893 47.4752 38.02C47.6992 38.1413 47.9885 38.202 48.3432 38.202C48.6512 38.202 48.9359 38.146 49.1972 38.034C49.4585 37.922 49.6825 37.754 49.8692 37.53C50.0559 37.2967 50.2005 37.0027 50.3032 36.648C50.4152 36.284 50.4712 35.8547 50.4712 35.36V31.874H51.6192V36.872C51.6192 37.2547 51.6239 37.6327 51.6332 38.006C51.6425 38.37 51.6612 38.7013 51.6892 39H50.5832C50.5645 38.832 50.5505 38.6313 50.5412 38.398C50.5319 38.1647 50.5272 37.9547 50.5272 37.768H50.4992ZM55.6994 31.916H57.6034V32.826H55.6994V36.354C55.6994 36.634 55.7181 36.8907 55.7554 37.124C55.7928 37.348 55.8581 37.5393 55.9514 37.698C56.0448 37.8473 56.1708 37.964 56.3294 38.048C56.4881 38.132 56.6888 38.174 56.9314 38.174C57.1834 38.174 57.4354 38.118 57.6874 38.006L57.7294 38.916C57.5708 38.9627 57.4028 39 57.2254 39.028C57.0574 39.0653 56.8801 39.084 56.6934 39.084C56.2734 39.084 55.9281 39.028 55.6574 38.916C55.3868 38.7947 55.1674 38.6267 54.9994 38.412C54.8408 38.188 54.7288 37.9267 54.6634 37.628C54.6074 37.32 54.5794 36.984 54.5794 36.62V32.826H52.9974V31.916H54.5794V30.264L55.6994 29.886V31.916ZM60.9358 31.916H62.8398V32.826H60.9358V36.354C60.9358 36.634 60.9544 36.8907 60.9918 37.124C61.0291 37.348 61.0944 37.5393 61.1878 37.698C61.2811 37.8473 61.4071 37.964 61.5658 38.048C61.7244 38.132 61.9251 38.174 62.1678 38.174C62.4198 38.174 62.6718 38.118 62.9238 38.006L62.9658 38.916C62.8071 38.9627 62.6391 39 62.4618 39.028C62.2938 39.0653 62.1164 39.084 61.9298 39.084C61.5098 39.084 61.1644 39.028 60.8938 38.916C60.6231 38.7947 60.4038 38.6267 60.2358 38.412C60.0771 38.188 59.9651 37.9267 59.8998 37.628C59.8438 37.32 59.8158 36.984 59.8158 36.62V32.826H58.2338V31.916H59.8158V30.264L60.9358 29.886V31.916ZM67.6281 31.72C68.1321 31.72 68.5987 31.8133 69.0281 32C69.4574 32.1773 69.8261 32.434 70.1341 32.77C70.4421 33.0967 70.6801 33.4933 70.8481 33.96C71.0254 34.4173 71.1141 34.9213 71.1141 35.472C71.1141 36.0227 71.0254 36.522 70.8481 36.97C70.6801 37.418 70.4374 37.8053 70.1201 38.132C69.8121 38.4587 69.4387 38.7107 69.0001 38.888C68.5707 39.0653 68.0947 39.154 67.5721 39.154C67.0587 39.154 66.5827 39.0653 66.1441 38.888C65.7147 38.7013 65.3414 38.4493 65.0241 38.132C64.7161 37.8053 64.4734 37.418 64.2961 36.97C64.1187 36.5127 64.0301 36.0133 64.0301 35.472C64.0301 34.912 64.1187 34.4033 64.2961 33.946C64.4734 33.4887 64.7161 33.0967 65.0241 32.77C65.3414 32.434 65.7194 32.1773 66.1581 32C66.6061 31.8133 67.0961 31.72 67.6281 31.72ZM67.5441 32.658C67.1987 32.658 66.8814 32.728 66.5921 32.868C66.3121 32.9987 66.0694 33.19 65.8641 33.442C65.6681 33.6847 65.5141 33.9787 65.4021 34.324C65.2901 34.6693 65.2341 35.052 65.2341 35.472C65.2341 35.892 65.2901 36.27 65.4021 36.606C65.5141 36.942 65.6727 37.2313 65.8781 37.474C66.0834 37.7073 66.3261 37.8893 66.6061 38.02C66.8954 38.1507 67.2174 38.216 67.5721 38.216C67.9174 38.216 68.2347 38.1507 68.5241 38.02C68.8134 37.8893 69.0607 37.7027 69.2661 37.46C69.4714 37.2173 69.6301 36.928 69.7421 36.592C69.8541 36.256 69.9101 35.878 69.9101 35.458C69.9101 35.038 69.8541 34.6553 69.7421 34.31C69.6301 33.9647 69.4667 33.6707 69.2521 33.428C69.0467 33.1853 68.7994 32.9987 68.5101 32.868C68.2207 32.728 67.8987 32.658 67.5441 32.658ZM74.1723 33.106C74.4336 32.6767 74.765 32.3407 75.1663 32.098C75.577 31.846 76.053 31.72 76.5943 31.72C77.089 31.72 77.4996 31.7993 77.8263 31.958C78.1623 32.1167 78.4283 32.336 78.6243 32.616C78.8203 32.896 78.9603 33.232 79.0443 33.624C79.1283 34.016 79.1703 34.4453 79.1703 34.912V39H78.0223V35.36C78.0223 34.9587 77.999 34.5947 77.9523 34.268C77.915 33.932 77.8356 33.6473 77.7143 33.414C77.593 33.1713 77.4203 32.9893 77.1963 32.868C76.9723 32.7373 76.683 32.672 76.3283 32.672C76.0203 32.672 75.7356 32.728 75.4743 32.84C75.213 32.952 74.989 33.1247 74.8023 33.358C74.6156 33.582 74.4663 33.876 74.3543 34.24C74.2516 34.5947 74.2003 35.0193 74.2003 35.514V39H73.0523V34.002C73.0523 33.6193 73.0476 33.246 73.0383 32.882C73.029 32.5087 73.0103 32.1727 72.9823 31.874H74.0883C74.107 32.042 74.121 32.2427 74.1303 32.476C74.1396 32.7093 74.1443 32.9193 74.1443 33.106H74.1723ZM86.4611 31.916H88.3651V32.826H86.4611V36.354C86.4611 36.634 86.4798 36.8907 86.5171 37.124C86.5545 37.348 86.6198 37.5393 86.7131 37.698C86.8065 37.8473 86.9325 37.964 87.0911 38.048C87.2498 38.132 87.4505 38.174 87.6931 38.174C87.9451 38.174 88.1971 38.118 88.4491 38.006L88.4911 38.916C88.3325 38.9627 88.1645 39 87.9871 39.028C87.8191 39.0653 87.6418 39.084 87.4551 39.084C87.0351 39.084 86.6898 39.028 86.4191 38.916C86.1485 38.7947 85.9291 38.6267 85.7611 38.412C85.6025 38.188 85.4905 37.9267 85.4251 37.628C85.3691 37.32 85.3411 36.984 85.3411 36.62V32.826H83.7591V31.916H85.3411V30.264L86.4611 29.886V31.916ZM90.7175 35.682C90.7361 36.4753 90.9741 37.096 91.4315 37.544C91.8888 37.9827 92.5001 38.202 93.2655 38.202C93.6575 38.202 94.0121 38.16 94.3295 38.076C94.6468 37.9827 94.9641 37.852 95.2815 37.684L95.3235 38.734C94.6888 39.014 93.9841 39.154 93.2095 39.154C92.0335 39.154 91.1281 38.8227 90.4935 38.16C89.8681 37.488 89.5555 36.564 89.5555 35.388C89.5555 34.828 89.6348 34.324 89.7935 33.876C89.9521 33.428 90.1761 33.0453 90.4655 32.728C90.7641 32.4013 91.1141 32.154 91.5155 31.986C91.9261 31.8087 92.3788 31.72 92.8735 31.72C93.7975 31.72 94.5208 32.0047 95.0435 32.574C95.5755 33.1433 95.8415 34.016 95.8415 35.192C95.8415 35.2573 95.8368 35.3367 95.8275 35.43C95.8275 35.5233 95.8228 35.6073 95.8135 35.682H90.7175ZM94.7215 34.8C94.7215 34.0533 94.5488 33.5027 94.2035 33.148C93.8675 32.784 93.4148 32.602 92.8455 32.602C92.2761 32.602 91.7955 32.7933 91.4035 33.176C91.0208 33.5493 90.8015 34.0907 90.7455 34.8H94.7215ZM100.025 34.702C100.147 34.4873 100.277 34.2493 100.417 33.988C100.567 33.7267 100.688 33.526 100.781 33.386L101.719 31.874H102.979L100.683 35.262L103.203 39H101.845L100.809 37.334C100.753 37.2407 100.683 37.1333 100.599 37.012C100.525 36.8813 100.445 36.7507 100.361 36.62C100.277 36.48 100.198 36.3493 100.123 36.228C100.049 36.0973 99.9927 35.99 99.9554 35.906C99.9087 35.99 99.8481 36.0973 99.7734 36.228C99.6987 36.3493 99.6194 36.48 99.5354 36.62C99.4514 36.76 99.3721 36.8953 99.2974 37.026C99.2227 37.1473 99.1574 37.25 99.1014 37.334L98.0654 39H96.7214L99.2834 35.262L96.9174 31.874H98.3034L99.2554 33.386C99.2927 33.4607 99.3441 33.5493 99.4094 33.652C99.4747 33.7547 99.5447 33.8667 99.6194 33.988C99.6941 34.1093 99.7641 34.2307 99.8294 34.352C99.9041 34.4733 99.9694 34.59 100.025 34.702ZM106.272 31.916H108.176V32.826H106.272V36.354C106.272 36.634 106.29 36.8907 106.328 37.124C106.365 37.348 106.43 37.5393 106.524 37.698C106.617 37.8473 106.743 37.964 106.902 38.048C107.06 38.132 107.261 38.174 107.504 38.174C107.756 38.174 108.008 38.118 108.26 38.006L108.302 38.916C108.143 38.9627 107.975 39 107.798 39.028C107.63 39.0653 107.452 39.084 107.266 39.084C106.846 39.084 106.5 39.028 106.23 38.916C105.959 38.7947 105.74 38.6267 105.572 38.412C105.413 38.188 105.301 37.9267 105.236 37.628C105.18 37.32 105.152 36.984 105.152 36.62V32.826H103.57V31.916H105.152V30.264L106.272 29.886V31.916Z" fill="black"/>
<rect x="20.5" y="16.5" width="104" height="38" rx="4.5" stroke="black" stroke-linejoin="round"/>
<g filter="url(#filter0_d_2_277)">
<rect x="20.5" y="71.5" width="104" height="38" rx="4.5" fill="white"/>
<path d="M37.358 84.228H39.738C40.8113 84.228 41.6607 84.4287 42.286 84.83C42.9207 85.2313 43.238 85.8613 43.238 86.72C43.238 87.2987 43.056 87.784 42.692 88.176C42.328 88.5587 41.8147 88.8153 41.152 88.946V88.974C41.8427 89.058 42.398 89.3053 42.818 89.716C43.2473 90.1173 43.462 90.6447 43.462 91.298C43.462 91.802 43.364 92.2267 43.168 92.572C42.972 92.908 42.706 93.1833 42.37 93.398C42.034 93.6127 41.642 93.7667 41.194 93.86C40.7553 93.9533 40.2933 94 39.808 94H37.358V84.228ZM38.52 88.484H39.472C39.8173 88.484 40.144 88.4607 40.452 88.414C40.7693 88.3673 41.0447 88.2833 41.278 88.162C41.5113 88.0407 41.6933 87.8727 41.824 87.658C41.964 87.4433 42.034 87.168 42.034 86.832C42.034 86.2347 41.8147 85.8147 41.376 85.572C40.9467 85.3293 40.354 85.208 39.598 85.208H38.52V88.484ZM38.52 93.034H39.612C40.4893 93.034 41.1473 92.894 41.586 92.614C42.034 92.3247 42.258 91.8673 42.258 91.242C42.258 90.6167 42.0293 90.1593 41.572 89.87C41.1147 89.5807 40.4053 89.436 39.444 89.436H38.52V93.034ZM50.4992 92.768C50.2379 93.1973 49.9019 93.538 49.4912 93.79C49.0899 94.0327 48.6185 94.154 48.0772 94.154C47.5825 94.154 47.1672 94.0747 46.8312 93.916C46.5045 93.7573 46.2432 93.538 46.0472 93.258C45.8512 92.978 45.7112 92.642 45.6272 92.25C45.5432 91.858 45.5012 91.4287 45.5012 90.962V86.874H46.6492V90.514C46.6492 90.9247 46.6679 91.2933 46.7052 91.62C46.7519 91.9467 46.8359 92.2313 46.9572 92.474C47.0785 92.7073 47.2512 92.8893 47.4752 93.02C47.6992 93.1413 47.9885 93.202 48.3432 93.202C48.6512 93.202 48.9359 93.146 49.1972 93.034C49.4585 92.922 49.6825 92.754 49.8692 92.53C50.0559 92.2967 50.2005 92.0027 50.3032 91.648C50.4152 91.284 50.4712 90.8547 50.4712 90.36V86.874H51.6192V91.872C51.6192 92.2547 51.6239 92.6327 51.6332 93.006C51.6425 93.37 51.6612 93.7013 51.6892 94H50.5832C50.5645 93.832 50.5505 93.6313 50.5412 93.398C50.5319 93.1647 50.5272 92.9547 50.5272 92.768H50.4992ZM55.6994 86.916H57.6034V87.826H55.6994V91.354C55.6994 91.634 55.7181 91.8907 55.7554 92.124C55.7928 92.348 55.8581 92.5393 55.9514 92.698C56.0448 92.8473 56.1708 92.964 56.3294 93.048C56.4881 93.132 56.6888 93.174 56.9314 93.174C57.1834 93.174 57.4354 93.118 57.6874 93.006L57.7294 93.916C57.5708 93.9627 57.4028 94 57.2254 94.028C57.0574 94.0653 56.8801 94.084 56.6934 94.084C56.2734 94.084 55.9281 94.028 55.6574 93.916C55.3868 93.7947 55.1674 93.6267 54.9994 93.412C54.8408 93.188 54.7288 92.9267 54.6634 92.628C54.6074 92.32 54.5794 91.984 54.5794 91.62V87.826H52.9974V86.916H54.5794V85.264L55.6994 84.886V86.916ZM60.9358 86.916H62.8398V87.826H60.9358V91.354C60.9358 91.634 60.9544 91.8907 60.9918 92.124C61.0291 92.348 61.0944 92.5393 61.1878 92.698C61.2811 92.8473 61.4071 92.964 61.5658 93.048C61.7244 93.132 61.9251 93.174 62.1678 93.174C62.4198 93.174 62.6718 93.118 62.9238 93.006L62.9658 93.916C62.8071 93.9627 62.6391 94 62.4618 94.028C62.2938 94.0653 62.1164 94.084 61.9298 94.084C61.5098 94.084 61.1644 94.028 60.8938 93.916C60.6231 93.7947 60.4038 93.6267 60.2358 93.412C60.0771 93.188 59.9651 92.9267 59.8998 92.628C59.8438 92.32 59.8158 91.984 59.8158 91.62V87.826H58.2338V86.916H59.8158V85.264L60.9358 84.886V86.916ZM67.6281 86.72C68.1321 86.72 68.5987 86.8133 69.0281 87C69.4574 87.1773 69.8261 87.434 70.1341 87.77C70.4421 88.0967 70.6801 88.4933 70.8481 88.96C71.0254 89.4173 71.1141 89.9213 71.1141 90.472C71.1141 91.0227 71.0254 91.522 70.8481 91.97C70.6801 92.418 70.4374 92.8053 70.1201 93.132C69.8121 93.4587 69.4387 93.7107 69.0001 93.888C68.5707 94.0653 68.0947 94.154 67.5721 94.154C67.0587 94.154 66.5827 94.0653 66.1441 93.888C65.7147 93.7013 65.3414 93.4493 65.0241 93.132C64.7161 92.8053 64.4734 92.418 64.2961 91.97C64.1187 91.5127 64.0301 91.0133 64.0301 90.472C64.0301 89.912 64.1187 89.4033 64.2961 88.946C64.4734 88.4887 64.7161 88.0967 65.0241 87.77C65.3414 87.434 65.7194 87.1773 66.1581 87C66.6061 86.8133 67.0961 86.72 67.6281 86.72ZM67.5441 87.658C67.1987 87.658 66.8814 87.728 66.5921 87.868C66.3121 87.9987 66.0694 88.19 65.8641 88.442C65.6681 88.6847 65.5141 88.9787 65.4021 89.324C65.2901 89.6693 65.2341 90.052 65.2341 90.472C65.2341 90.892 65.2901 91.27 65.4021 91.606C65.5141 91.942 65.6727 92.2313 65.8781 92.474C66.0834 92.7073 66.3261 92.8893 66.6061 93.02C66.8954 93.1507 67.2174 93.216 67.5721 93.216C67.9174 93.216 68.2347 93.1507 68.5241 93.02C68.8134 92.8893 69.0607 92.7027 69.2661 92.46C69.4714 92.2173 69.6301 91.928 69.7421 91.592C69.8541 91.256 69.9101 90.878 69.9101 90.458C69.9101 90.038 69.8541 89.6553 69.7421 89.31C69.6301 88.9647 69.4667 88.6707 69.2521 88.428C69.0467 88.1853 68.7994 87.9987 68.5101 87.868C68.2207 87.728 67.8987 87.658 67.5441 87.658ZM74.1723 88.106C74.4336 87.6767 74.765 87.3407 75.1663 87.098C75.577 86.846 76.053 86.72 76.5943 86.72C77.089 86.72 77.4996 86.7993 77.8263 86.958C78.1623 87.1167 78.4283 87.336 78.6243 87.616C78.8203 87.896 78.9603 88.232 79.0443 88.624C79.1283 89.016 79.1703 89.4453 79.1703 89.912V94H78.0223V90.36C78.0223 89.9587 77.999 89.5947 77.9523 89.268C77.915 88.932 77.8356 88.6473 77.7143 88.414C77.593 88.1713 77.4203 87.9893 77.1963 87.868C76.9723 87.7373 76.683 87.672 76.3283 87.672C76.0203 87.672 75.7356 87.728 75.4743 87.84C75.213 87.952 74.989 88.1247 74.8023 88.358C74.6156 88.582 74.4663 88.876 74.3543 89.24C74.2516 89.5947 74.2003 90.0193 74.2003 90.514V94H73.0523V89.002C73.0523 88.6193 73.0476 88.246 73.0383 87.882C73.029 87.5087 73.0103 87.1727 72.9823 86.874H74.0883C74.107 87.042 74.121 87.2427 74.1303 87.476C74.1396 87.7093 74.1443 87.9193 74.1443 88.106H74.1723ZM86.4611 86.916H88.3651V87.826H86.4611V91.354C86.4611 91.634 86.4798 91.8907 86.5171 92.124C86.5545 92.348 86.6198 92.5393 86.7131 92.698C86.8065 92.8473 86.9325 92.964 87.0911 93.048C87.2498 93.132 87.4505 93.174 87.6931 93.174C87.9451 93.174 88.1971 93.118 88.4491 93.006L88.4911 93.916C88.3325 93.9627 88.1645 94 87.9871 94.028C87.8191 94.0653 87.6418 94.084 87.4551 94.084C87.0351 94.084 86.6898 94.028 86.4191 93.916C86.1485 93.7947 85.9291 93.6267 85.7611 93.412C85.6025 93.188 85.4905 92.9267 85.4251 92.628C85.3691 92.32 85.3411 91.984 85.3411 91.62V87.826H83.7591V86.916H85.3411V85.264L86.4611 84.886V86.916ZM90.7175 90.682C90.7361 91.4753 90.9741 92.096 91.4315 92.544C91.8888 92.9827 92.5001 93.202 93.2655 93.202C93.6575 93.202 94.0121 93.16 94.3295 93.076C94.6468 92.9827 94.9641 92.852 95.2815 92.684L95.3235 93.734C94.6888 94.014 93.9841 94.154 93.2095 94.154C92.0335 94.154 91.1281 93.8227 90.4935 93.16C89.8681 92.488 89.5555 91.564 89.5555 90.388C89.5555 89.828 89.6348 89.324 89.7935 88.876C89.9521 88.428 90.1761 88.0453 90.4655 87.728C90.7641 87.4013 91.1141 87.154 91.5155 86.986C91.9261 86.8087 92.3788 86.72 92.8735 86.72C93.7975 86.72 94.5208 87.0047 95.0435 87.574C95.5755 88.1433 95.8415 89.016 95.8415 90.192C95.8415 90.2573 95.8368 90.3367 95.8275 90.43C95.8275 90.5233 95.8228 90.6073 95.8135 90.682H90.7175ZM94.7215 89.8C94.7215 89.0533 94.5488 88.5027 94.2035 88.148C93.8675 87.784 93.4148 87.602 92.8455 87.602C92.2761 87.602 91.7955 87.7933 91.4035 88.176C91.0208 88.5493 90.8015 89.0907 90.7455 89.8H94.7215ZM100.025 89.702C100.147 89.4873 100.277 89.2493 100.417 88.988C100.567 88.7267 100.688 88.526 100.781 88.386L101.719 86.874H102.979L100.683 90.262L103.203 94H101.845L100.809 92.334C100.753 92.2407 100.683 92.1333 100.599 92.012C100.525 91.8813 100.445 91.7507 100.361 91.62C100.277 91.48 100.198 91.3493 100.123 91.228C100.049 91.0973 99.9927 90.99 99.9554 90.906C99.9087 90.99 99.8481 91.0973 99.7734 91.228C99.6987 91.3493 99.6194 91.48 99.5354 91.62C99.4514 91.76 99.3721 91.8953 99.2974 92.026C99.2227 92.1473 99.1574 92.25 99.1014 92.334L98.0654 94H96.7214L99.2834 90.262L96.9174 86.874H98.3034L99.2554 88.386C99.2927 88.4607 99.3441 88.5493 99.4094 88.652C99.4747 88.7547 99.5447 88.8667 99.6194 88.988C99.6941 89.1093 99.7641 89.2307 99.8294 89.352C99.9041 89.4733 99.9694 89.59 100.025 89.702ZM106.272 86.916H108.176V87.826H106.272V91.354C106.272 91.634 106.29 91.8907 106.328 92.124C106.365 92.348 106.43 92.5393 106.524 92.698C106.617 92.8473 106.743 92.964 106.902 93.048C107.06 93.132 107.261 93.174 107.504 93.174C107.756 93.174 108.008 93.118 108.26 93.006L108.302 93.916C108.143 93.9627 107.975 94 107.798 94.028C107.63 94.0653 107.452 94.084 107.266 94.084C106.846 94.084 106.5 94.028 106.23 93.916C105.959 93.7947 105.74 93.6267 105.572 93.412C105.413 93.188 105.301 92.9267 105.236 92.628C105.18 92.32 105.152 91.984 105.152 91.62V87.826H103.57V86.916H105.152V85.264L106.272 84.886V86.916Z" fill="black"/>
<rect x="20.5" y="71.5" width="104" height="38" rx="4.5" stroke="black" stroke-linejoin="round"/>
</g>
<rect x="20.5" y="126.5" width="104" height="38" rx="4.5" fill="#1B60DB"/>
<path d="M37.358 139.228H39.738C40.8113 139.228 41.6607 139.429 42.286 139.83C42.9207 140.231 43.238 140.861 43.238 141.72C43.238 142.299 43.056 142.784 42.692 143.176C42.328 143.559 41.8147 143.815 41.152 143.946V143.974C41.8427 144.058 42.398 144.305 42.818 144.716C43.2473 145.117 43.462 145.645 43.462 146.298C43.462 146.802 43.364 147.227 43.168 147.572C42.972 147.908 42.706 148.183 42.37 148.398C42.034 148.613 41.642 148.767 41.194 148.86C40.7553 148.953 40.2933 149 39.808 149H37.358V139.228ZM38.52 143.484H39.472C39.8173 143.484 40.144 143.461 40.452 143.414C40.7693 143.367 41.0447 143.283 41.278 143.162C41.5113 143.041 41.6933 142.873 41.824 142.658C41.964 142.443 42.034 142.168 42.034 141.832C42.034 141.235 41.8147 140.815 41.376 140.572C40.9467 140.329 40.354 140.208 39.598 140.208H38.52V143.484ZM38.52 148.034H39.612C40.4893 148.034 41.1473 147.894 41.586 147.614C42.034 147.325 42.258 146.867 42.258 146.242C42.258 145.617 42.0293 145.159 41.572 144.87C41.1147 144.581 40.4053 144.436 39.444 144.436H38.52V148.034ZM50.4992 147.768C50.2379 148.197 49.9019 148.538 49.4912 148.79C49.0899 149.033 48.6185 149.154 48.0772 149.154C47.5825 149.154 47.1672 149.075 46.8312 148.916C46.5045 148.757 46.2432 148.538 46.0472 148.258C45.8512 147.978 45.7112 147.642 45.6272 147.25C45.5432 146.858 45.5012 146.429 45.5012 145.962V141.874H46.6492V145.514C46.6492 145.925 46.6679 146.293 46.7052 146.62C46.7519 146.947 46.8359 147.231 46.9572 147.474C47.0785 147.707 47.2512 147.889 47.4752 148.02C47.6992 148.141 47.9885 148.202 48.3432 148.202C48.6512 148.202 48.9359 148.146 49.1972 148.034C49.4585 147.922 49.6825 147.754 49.8692 147.53C50.0559 147.297 50.2005 147.003 50.3032 146.648C50.4152 146.284 50.4712 145.855 50.4712 145.36V141.874H51.6192V146.872C51.6192 147.255 51.6239 147.633 51.6332 148.006C51.6425 148.37 51.6612 148.701 51.6892 149H50.5832C50.5645 148.832 50.5505 148.631 50.5412 148.398C50.5319 148.165 50.5272 147.955 50.5272 147.768H50.4992ZM55.6994 141.916H57.6034V142.826H55.6994V146.354C55.6994 146.634 55.7181 146.891 55.7554 147.124C55.7928 147.348 55.8581 147.539 55.9514 147.698C56.0448 147.847 56.1708 147.964 56.3294 148.048C56.4881 148.132 56.6888 148.174 56.9314 148.174C57.1834 148.174 57.4354 148.118 57.6874 148.006L57.7294 148.916C57.5708 148.963 57.4028 149 57.2254 149.028C57.0574 149.065 56.8801 149.084 56.6934 149.084C56.2734 149.084 55.9281 149.028 55.6574 148.916C55.3868 148.795 55.1674 148.627 54.9994 148.412C54.8408 148.188 54.7288 147.927 54.6634 147.628C54.6074 147.32 54.5794 146.984 54.5794 146.62V142.826H52.9974V141.916H54.5794V140.264L55.6994 139.886V141.916ZM60.9358 141.916H62.8398V142.826H60.9358V146.354C60.9358 146.634 60.9544 146.891 60.9918 147.124C61.0291 147.348 61.0944 147.539 61.1878 147.698C61.2811 147.847 61.4071 147.964 61.5658 148.048C61.7244 148.132 61.9251 148.174 62.1678 148.174C62.4198 148.174 62.6718 148.118 62.9238 148.006L62.9658 148.916C62.8071 148.963 62.6391 149 62.4618 149.028C62.2938 149.065 62.1164 149.084 61.9298 149.084C61.5098 149.084 61.1644 149.028 60.8938 148.916C60.6231 148.795 60.4038 148.627 60.2358 148.412C60.0771 148.188 59.9651 147.927 59.8998 147.628C59.8438 147.32 59.8158 146.984 59.8158 146.62V142.826H58.2338V141.916H59.8158V140.264L60.9358 139.886V141.916ZM67.6281 141.72C68.1321 141.72 68.5987 141.813 69.0281 142C69.4574 142.177 69.8261 142.434 70.1341 142.77C70.4421 143.097 70.6801 143.493 70.8481 143.96C71.0254 144.417 71.1141 144.921 71.1141 145.472C71.1141 146.023 71.0254 146.522 70.8481 146.97C70.6801 147.418 70.4374 147.805 70.1201 148.132C69.8121 148.459 69.4387 148.711 69.0001 148.888C68.5707 149.065 68.0947 149.154 67.5721 149.154C67.0587 149.154 66.5827 149.065 66.1441 148.888C65.7147 148.701 65.3414 148.449 65.0241 148.132C64.7161 147.805 64.4734 147.418 64.2961 146.97C64.1187 146.513 64.0301 146.013 64.0301 145.472C64.0301 144.912 64.1187 144.403 64.2961 143.946C64.4734 143.489 64.7161 143.097 65.0241 142.77C65.3414 142.434 65.7194 142.177 66.1581 142C66.6061 141.813 67.0961 141.72 67.6281 141.72ZM67.5441 142.658C67.1987 142.658 66.8814 142.728 66.5921 142.868C66.3121 142.999 66.0694 143.19 65.8641 143.442C65.6681 143.685 65.5141 143.979 65.4021 144.324C65.2901 144.669 65.2341 145.052 65.2341 145.472C65.2341 145.892 65.2901 146.27 65.4021 146.606C65.5141 146.942 65.6727 147.231 65.8781 147.474C66.0834 147.707 66.3261 147.889 66.6061 148.02C66.8954 148.151 67.2174 148.216 67.5721 148.216C67.9174 148.216 68.2347 148.151 68.5241 148.02C68.8134 147.889 69.0607 147.703 69.2661 147.46C69.4714 147.217 69.6301 146.928 69.7421 146.592C69.8541 146.256 69.9101 145.878 69.9101 145.458C69.9101 145.038 69.8541 144.655 69.7421 144.31C69.6301 143.965 69.4667 143.671 69.2521 143.428C69.0467 143.185 68.7994 142.999 68.5101 142.868C68.2207 142.728 67.8987 142.658 67.5441 142.658ZM74.1723 143.106C74.4336 142.677 74.765 142.341 75.1663 142.098C75.577 141.846 76.053 141.72 76.5943 141.72C77.089 141.72 77.4996 141.799 77.8263 141.958C78.1623 142.117 78.4283 142.336 78.6243 142.616C78.8203 142.896 78.9603 143.232 79.0443 143.624C79.1283 144.016 79.1703 144.445 79.1703 144.912V149H78.0223V145.36C78.0223 144.959 77.999 144.595 77.9523 144.268C77.915 143.932 77.8356 143.647 77.7143 143.414C77.593 143.171 77.4203 142.989 77.1963 142.868C76.9723 142.737 76.683 142.672 76.3283 142.672C76.0203 142.672 75.7356 142.728 75.4743 142.84C75.213 142.952 74.989 143.125 74.8023 143.358C74.6156 143.582 74.4663 143.876 74.3543 144.24C74.2516 144.595 74.2003 145.019 74.2003 145.514V149H73.0523V144.002C73.0523 143.619 73.0476 143.246 73.0383 142.882C73.029 142.509 73.0103 142.173 72.9823 141.874H74.0883C74.107 142.042 74.121 142.243 74.1303 142.476C74.1396 142.709 74.1443 142.919 74.1443 143.106H74.1723ZM86.4611 141.916H88.3651V142.826H86.4611V146.354C86.4611 146.634 86.4798 146.891 86.5171 147.124C86.5545 147.348 86.6198 147.539 86.7131 147.698C86.8065 147.847 86.9325 147.964 87.0911 148.048C87.2498 148.132 87.4505 148.174 87.6931 148.174C87.9451 148.174 88.1971 148.118 88.4491 148.006L88.4911 148.916C88.3325 148.963 88.1645 149 87.9871 149.028C87.8191 149.065 87.6418 149.084 87.4551 149.084C87.0351 149.084 86.6898 149.028 86.4191 148.916C86.1485 148.795 85.9291 148.627 85.7611 148.412C85.6025 148.188 85.4905 147.927 85.4251 147.628C85.3691 147.32 85.3411 146.984 85.3411 146.62V142.826H83.7591V141.916H85.3411V140.264L86.4611 139.886V141.916ZM90.7175 145.682C90.7361 146.475 90.9741 147.096 91.4315 147.544C91.8888 147.983 92.5001 148.202 93.2655 148.202C93.6575 148.202 94.0121 148.16 94.3295 148.076C94.6468 147.983 94.9641 147.852 95.2815 147.684L95.3235 148.734C94.6888 149.014 93.9841 149.154 93.2095 149.154C92.0335 149.154 91.1281 148.823 90.4935 148.16C89.8681 147.488 89.5555 146.564 89.5555 145.388C89.5555 144.828 89.6348 144.324 89.7935 143.876C89.9521 143.428 90.1761 143.045 90.4655 142.728C90.7641 142.401 91.1141 142.154 91.5155 141.986C91.9261 141.809 92.3788 141.72 92.8735 141.72C93.7975 141.72 94.5208 142.005 95.0435 142.574C95.5755 143.143 95.8415 144.016 95.8415 145.192C95.8415 145.257 95.8368 145.337 95.8275 145.43C95.8275 145.523 95.8228 145.607 95.8135 145.682H90.7175ZM94.7215 144.8C94.7215 144.053 94.5488 143.503 94.2035 143.148C93.8675 142.784 93.4148 142.602 92.8455 142.602C92.2761 142.602 91.7955 142.793 91.4035 143.176C91.0208 143.549 90.8015 144.091 90.7455 144.8H94.7215ZM100.025 144.702C100.147 144.487 100.277 144.249 100.417 143.988C100.567 143.727 100.688 143.526 100.781 143.386L101.719 141.874H102.979L100.683 145.262L103.203 149H101.845L100.809 147.334C100.753 147.241 100.683 147.133 100.599 147.012C100.525 146.881 100.445 146.751 100.361 146.62C100.277 146.48 100.198 146.349 100.123 146.228C100.049 146.097 99.9927 145.99 99.9554 145.906C99.9087 145.99 99.8481 146.097 99.7734 146.228C99.6987 146.349 99.6194 146.48 99.5354 146.62C99.4514 146.76 99.3721 146.895 99.2974 147.026C99.2227 147.147 99.1574 147.25 99.1014 147.334L98.0654 149H96.7214L99.2834 145.262L96.9174 141.874H98.3034L99.2554 143.386C99.2927 143.461 99.3441 143.549 99.4094 143.652C99.4747 143.755 99.5447 143.867 99.6194 143.988C99.6941 144.109 99.7641 144.231 99.8294 144.352C99.9041 144.473 99.9694 144.59 100.025 144.702ZM106.272 141.916H108.176V142.826H106.272V146.354C106.272 146.634 106.29 146.891 106.328 147.124C106.365 147.348 106.43 147.539 106.524 147.698C106.617 147.847 106.743 147.964 106.902 148.048C107.06 148.132 107.261 148.174 107.504 148.174C107.756 148.174 108.008 148.118 108.26 148.006L108.302 148.916C108.143 148.963 107.975 149 107.798 149.028C107.63 149.065 107.452 149.084 107.266 149.084C106.846 149.084 106.5 149.028 106.23 148.916C105.959 148.795 105.74 148.627 105.572 148.412C105.413 148.188 105.301 147.927 105.236 147.628C105.18 147.32 105.152 146.984 105.152 146.62V142.826H103.57V141.916H105.152V140.264L106.272 139.886V141.916Z" fill="white"/>
<rect x="20.5" y="126.5" width="104" height="38" rx="4.5" stroke="#1B60DB" stroke-linejoin="round"/>
<g filter="url(#filter1_d_2_277)">
<rect x="20.5" y="181.5" width="104" height="38" rx="4.5" fill="#1B60DB"/>
<path d="M37.358 194.228H39.738C40.8113 194.228 41.6607 194.429 42.286 194.83C42.9207 195.231 43.238 195.861 43.238 196.72C43.238 197.299 43.056 197.784 42.692 198.176C42.328 198.559 41.8147 198.815 41.152 198.946V198.974C41.8427 199.058 42.398 199.305 42.818 199.716C43.2473 200.117 43.462 200.645 43.462 201.298C43.462 201.802 43.364 202.227 43.168 202.572C42.972 202.908 42.706 203.183 42.37 203.398C42.034 203.613 41.642 203.767 41.194 203.86C40.7553 203.953 40.2933 204 39.808 204H37.358V194.228ZM38.52 198.484H39.472C39.8173 198.484 40.144 198.461 40.452 198.414C40.7693 198.367 41.0447 198.283 41.278 198.162C41.5113 198.041 41.6933 197.873 41.824 197.658C41.964 197.443 42.034 197.168 42.034 196.832C42.034 196.235 41.8147 195.815 41.376 195.572C40.9467 195.329 40.354 195.208 39.598 195.208H38.52V198.484ZM38.52 203.034H39.612C40.4893 203.034 41.1473 202.894 41.586 202.614C42.034 202.325 42.258 201.867 42.258 201.242C42.258 200.617 42.0293 200.159 41.572 199.87C41.1147 199.581 40.4053 199.436 39.444 199.436H38.52V203.034ZM50.4992 202.768C50.2379 203.197 49.9019 203.538 49.4912 203.79C49.0899 204.033 48.6185 204.154 48.0772 204.154C47.5825 204.154 47.1672 204.075 46.8312 203.916C46.5045 203.757 46.2432 203.538 46.0472 203.258C45.8512 202.978 45.7112 202.642 45.6272 202.25C45.5432 201.858 45.5012 201.429 45.5012 200.962V196.874H46.6492V200.514C46.6492 200.925 46.6679 201.293 46.7052 201.62C46.7519 201.947 46.8359 202.231 46.9572 202.474C47.0785 202.707 47.2512 202.889 47.4752 203.02C47.6992 203.141 47.9885 203.202 48.3432 203.202C48.6512 203.202 48.9359 203.146 49.1972 203.034C49.4585 202.922 49.6825 202.754 49.8692 202.53C50.0559 202.297 50.2005 202.003 50.3032 201.648C50.4152 201.284 50.4712 200.855 50.4712 200.36V196.874H51.6192V201.872C51.6192 202.255 51.6239 202.633 51.6332 203.006C51.6425 203.37 51.6612 203.701 51.6892 204H50.5832C50.5645 203.832 50.5505 203.631 50.5412 203.398C50.5319 203.165 50.5272 202.955 50.5272 202.768H50.4992ZM55.6994 196.916H57.6034V197.826H55.6994V201.354C55.6994 201.634 55.7181 201.891 55.7554 202.124C55.7928 202.348 55.8581 202.539 55.9514 202.698C56.0448 202.847 56.1708 202.964 56.3294 203.048C56.4881 203.132 56.6888 203.174 56.9314 203.174C57.1834 203.174 57.4354 203.118 57.6874 203.006L57.7294 203.916C57.5708 203.963 57.4028 204 57.2254 204.028C57.0574 204.065 56.8801 204.084 56.6934 204.084C56.2734 204.084 55.9281 204.028 55.6574 203.916C55.3868 203.795 55.1674 203.627 54.9994 203.412C54.8408 203.188 54.7288 202.927 54.6634 202.628C54.6074 202.32 54.5794 201.984 54.5794 201.62V197.826H52.9974V196.916H54.5794V195.264L55.6994 194.886V196.916ZM60.9358 196.916H62.8398V197.826H60.9358V201.354C60.9358 201.634 60.9544 201.891 60.9918 202.124C61.0291 202.348 61.0944 202.539 61.1878 202.698C61.2811 202.847 61.4071 202.964 61.5658 203.048C61.7244 203.132 61.9251 203.174 62.1678 203.174C62.4198 203.174 62.6718 203.118 62.9238 203.006L62.9658 203.916C62.8071 203.963 62.6391 204 62.4618 204.028C62.2938 204.065 62.1164 204.084 61.9298 204.084C61.5098 204.084 61.1644 204.028 60.8938 203.916C60.6231 203.795 60.4038 203.627 60.2358 203.412C60.0771 203.188 59.9651 202.927 59.8998 202.628C59.8438 202.32 59.8158 201.984 59.8158 201.62V197.826H58.2338V196.916H59.8158V195.264L60.9358 194.886V196.916ZM67.6281 196.72C68.1321 196.72 68.5987 196.813 69.0281 197C69.4574 197.177 69.8261 197.434 70.1341 197.77C70.4421 198.097 70.6801 198.493 70.8481 198.96C71.0254 199.417 71.1141 199.921 71.1141 200.472C71.1141 201.023 71.0254 201.522 70.8481 201.97C70.6801 202.418 70.4374 202.805 70.1201 203.132C69.8121 203.459 69.4387 203.711 69.0001 203.888C68.5707 204.065 68.0947 204.154 67.5721 204.154C67.0587 204.154 66.5827 204.065 66.1441 203.888C65.7147 203.701 65.3414 203.449 65.0241 203.132C64.7161 202.805 64.4734 202.418 64.2961 201.97C64.1187 201.513 64.0301 201.013 64.0301 200.472C64.0301 199.912 64.1187 199.403 64.2961 198.946C64.4734 198.489 64.7161 198.097 65.0241 197.77C65.3414 197.434 65.7194 197.177 66.1581 197C66.6061 196.813 67.0961 196.72 67.6281 196.72ZM67.5441 197.658C67.1987 197.658 66.8814 197.728 66.5921 197.868C66.3121 197.999 66.0694 198.19 65.8641 198.442C65.6681 198.685 65.5141 198.979 65.4021 199.324C65.2901 199.669 65.2341 200.052 65.2341 200.472C65.2341 200.892 65.2901 201.27 65.4021 201.606C65.5141 201.942 65.6727 202.231 65.8781 202.474C66.0834 202.707 66.3261 202.889 66.6061 203.02C66.8954 203.151 67.2174 203.216 67.5721 203.216C67.9174 203.216 68.2347 203.151 68.5241 203.02C68.8134 202.889 69.0607 202.703 69.2661 202.46C69.4714 202.217 69.6301 201.928 69.7421 201.592C69.8541 201.256 69.9101 200.878 69.9101 200.458C69.9101 200.038 69.8541 199.655 69.7421 199.31C69.6301 198.965 69.4667 198.671 69.2521 198.428C69.0467 198.185 68.7994 197.999 68.5101 197.868C68.2207 197.728 67.8987 197.658 67.5441 197.658ZM74.1723 198.106C74.4336 197.677 74.765 197.341 75.1663 197.098C75.577 196.846 76.053 196.72 76.5943 196.72C77.089 196.72 77.4996 196.799 77.8263 196.958C78.1623 197.117 78.4283 197.336 78.6243 197.616C78.8203 197.896 78.9603 198.232 79.0443 198.624C79.1283 199.016 79.1703 199.445 79.1703 199.912V204H78.0223V200.36C78.0223 199.959 77.999 199.595 77.9523 199.268C77.915 198.932 77.8356 198.647 77.7143 198.414C77.593 198.171 77.4203 197.989 77.1963 197.868C76.9723 197.737 76.683 197.672 76.3283 197.672C76.0203 197.672 75.7356 197.728 75.4743 197.84C75.213 197.952 74.989 198.125 74.8023 198.358C74.6156 198.582 74.4663 198.876 74.3543 199.24C74.2516 199.595 74.2003 200.019 74.2003 200.514V204H73.0523V199.002C73.0523 198.619 73.0476 198.246 73.0383 197.882C73.029 197.509 73.0103 197.173 72.9823 196.874H74.0883C74.107 197.042 74.121 197.243 74.1303 197.476C74.1396 197.709 74.1443 197.919 74.1443 198.106H74.1723ZM86.4611 196.916H88.3651V197.826H86.4611V201.354C86.4611 201.634 86.4798 201.891 86.5171 202.124C86.5545 202.348 86.6198 202.539 86.7131 202.698C86.8065 202.847 86.9325 202.964 87.0911 203.048C87.2498 203.132 87.4505 203.174 87.6931 203.174C87.9451 203.174 88.1971 203.118 88.4491 203.006L88.4911 203.916C88.3325 203.963 88.1645 204 87.9871 204.028C87.8191 204.065 87.6418 204.084 87.4551 204.084C87.0351 204.084 86.6898 204.028 86.4191 203.916C86.1485 203.795 85.9291 203.627 85.7611 203.412C85.6025 203.188 85.4905 202.927 85.4251 202.628C85.3691 202.32 85.3411 201.984 85.3411 201.62V197.826H83.7591V196.916H85.3411V195.264L86.4611 194.886V196.916ZM90.7175 200.682C90.7361 201.475 90.9741 202.096 91.4315 202.544C91.8888 202.983 92.5001 203.202 93.2655 203.202C93.6575 203.202 94.0121 203.16 94.3295 203.076C94.6468 202.983 94.9641 202.852 95.2815 202.684L95.3235 203.734C94.6888 204.014 93.9841 204.154 93.2095 204.154C92.0335 204.154 91.1281 203.823 90.4935 203.16C89.8681 202.488 89.5555 201.564 89.5555 200.388C89.5555 199.828 89.6348 199.324 89.7935 198.876C89.9521 198.428 90.1761 198.045 90.4655 197.728C90.7641 197.401 91.1141 197.154 91.5155 196.986C91.9261 196.809 92.3788 196.72 92.8735 196.72C93.7975 196.72 94.5208 197.005 95.0435 197.574C95.5755 198.143 95.8415 199.016 95.8415 200.192C95.8415 200.257 95.8368 200.337 95.8275 200.43C95.8275 200.523 95.8228 200.607 95.8135 200.682H90.7175ZM94.7215 199.8C94.7215 199.053 94.5488 198.503 94.2035 198.148C93.8675 197.784 93.4148 197.602 92.8455 197.602C92.2761 197.602 91.7955 197.793 91.4035 198.176C91.0208 198.549 90.8015 199.091 90.7455 199.8H94.7215ZM100.025 199.702C100.147 199.487 100.277 199.249 100.417 198.988C100.567 198.727 100.688 198.526 100.781 198.386L101.719 196.874H102.979L100.683 200.262L103.203 204H101.845L100.809 202.334C100.753 202.241 100.683 202.133 100.599 202.012C100.525 201.881 100.445 201.751 100.361 201.62C100.277 201.48 100.198 201.349 100.123 201.228C100.049 201.097 99.9927 200.99 99.9554 200.906C99.9087 200.99 99.8481 201.097 99.7734 201.228C99.6987 201.349 99.6194 201.48 99.5354 201.62C99.4514 201.76 99.3721 201.895 99.2974 202.026C99.2227 202.147 99.1574 202.25 99.1014 202.334L98.0654 204H96.7214L99.2834 200.262L96.9174 196.874H98.3034L99.2554 198.386C99.2927 198.461 99.3441 198.549 99.4094 198.652C99.4747 198.755 99.5447 198.867 99.6194 198.988C99.6941 199.109 99.7641 199.231 99.8294 199.352C99.9041 199.473 99.9694 199.59 100.025 199.702ZM106.272 196.916H108.176V197.826H106.272V201.354C106.272 201.634 106.29 201.891 106.328 202.124C106.365 202.348 106.43 202.539 106.524 202.698C106.617 202.847 106.743 202.964 106.902 203.048C107.06 203.132 107.261 203.174 107.504 203.174C107.756 203.174 108.008 203.118 108.26 203.006L108.302 203.916C108.143 203.963 107.975 204 107.798 204.028C107.63 204.065 107.452 204.084 107.266 204.084C106.846 204.084 106.5 204.028 106.23 203.916C105.959 203.795 105.74 203.627 105.572 203.412C105.413 203.188 105.301 202.927 105.236 202.628C105.18 202.32 105.152 201.984 105.152 201.62V197.826H103.57V196.916H105.152V195.264L106.272 194.886V196.916Z" fill="white"/>
<rect x="20.5" y="181.5" width="104" height="38" rx="4.5" stroke="#1B60DB" stroke-linejoin="round"/>
</g>
<rect x="0.5" y="0.5" width="144" height="235" rx="4.5" stroke="#9747FF" stroke-dasharray="10 5"/>
<defs>
<filter id="filter0_d_2_277" x="16" y="71" width="113" height="47" filterUnits="userSpaceOnUse" color-interpolation-filters="sRGB">
<feFlood flood-opacity="0" result="BackgroundImageFix"/>
<feColorMatrix in="SourceAlpha" type="matrix" values="0 0 0 0 0 0 0 0 0 0 0 0 0 0 0 0 0 0 127 0" result="hardAlpha"/>
<feOffset dy="4"/>
<feGaussianBlur stdDeviation="2"/>
<feComposite in2="hardAlpha" operator="out"/>
<feColorMatrix type="matrix" values="0 0 0 0 0 0 0 0 0 0 0 0 0 0 0 0 0 0 0.25 0"/>
<feBlend mode="normal" in2="BackgroundImageFix" result="effect1_dropShadow_2_277"/>
<feBlend mode="normal" in="SourceGraphic" in2="effect1_dropShadow_2_277" result="shape"/>
</filter>
<filter id="filter1_d_2_277" x="16" y="181" width="113" height="47" filterUnits="userSpaceOnUse" color-interpolation-filters="sRGB">
<feFlood flood-opacity="0" result="BackgroundImageFix"/>
<feColorMatrix in="SourceAlpha" type="matrix" values="0 0 0 0 0 0 0 0 0 0 0 0 0 0 0 0 0 0 127 0" result="hardAlpha"/>
<feOffset dy="4"/>
<feGaussianBlur stdDeviation="2"/>
<feComposite in2="hardAlpha" operator="out"/>
<feColorMatrix type="matrix" values="0 0 0 0 0 0 0 0 0 0 0 0 0 0 0 0 0 0 0.25 0"/>
<feBlend mode="normal" in2="BackgroundImageFix" result="effect1_dropShadow_2_277"/>
<feBlend mode="normal" in="SourceGraphic" in2="effect1_dropShadow_2_277" result="shape"/>
</filter>
</defs>
</svg>
