<svg width="105" height="39" viewBox="0 0 105 39" fill="none" xmlns="http://www.w3.org/2000/svg">
<rect x="0.5" y="0.5" width="104" height="38" rx="4.5" fill="white"/>
<path d="M17.358 13.228H19.738C20.8113 13.228 21.6607 13.4287 22.286 13.83C22.9207 14.2313 23.238 14.8613 23.238 15.72C23.238 16.2987 23.056 16.784 22.692 17.176C22.328 17.5587 21.8147 17.8153 21.152 17.946V17.974C21.8427 18.058 22.398 18.3053 22.818 18.716C23.2473 19.1173 23.462 19.6447 23.462 20.298C23.462 20.802 23.364 21.2267 23.168 21.572C22.972 21.908 22.706 22.1833 22.37 22.398C22.034 22.6127 21.642 22.7667 21.194 22.86C20.7553 22.9533 20.2933 23 19.808 23H17.358V13.228ZM18.52 17.484H19.472C19.8173 17.484 20.144 17.4607 20.452 17.414C20.7693 17.3673 21.0447 17.2833 21.278 17.162C21.5113 17.0407 21.6933 16.8727 21.824 16.658C21.964 16.4433 22.034 16.168 22.034 15.832C22.034 15.2347 21.8147 14.8147 21.376 14.572C20.9467 14.3293 20.354 14.208 19.598 14.208H18.52V17.484ZM18.52 22.034H19.612C20.4893 22.034 21.1473 21.894 21.586 21.614C22.034 21.3247 22.258 20.8673 22.258 20.242C22.258 19.6167 22.0293 19.1593 21.572 18.87C21.1147 18.5807 20.4053 18.436 19.444 18.436H18.52V22.034ZM30.4992 21.768C30.2379 22.1973 29.9019 22.538 29.4912 22.79C29.0899 23.0327 28.6185 23.154 28.0772 23.154C27.5825 23.154 27.1672 23.0747 26.8312 22.916C26.5045 22.7573 26.2432 22.538 26.0472 22.258C25.8512 21.978 25.7112 21.642 25.6272 21.25C25.5432 20.858 25.5012 20.4287 25.5012 19.962V15.874H26.6492V19.514C26.6492 19.9247 26.6679 20.2933 26.7052 20.62C26.7519 20.9467 26.8359 21.2313 26.9572 21.474C27.0785 21.7073 27.2512 21.8893 27.4752 22.02C27.6992 22.1413 27.9885 22.202 28.3432 22.202C28.6512 22.202 28.9359 22.146 29.1972 22.034C29.4585 21.922 29.6825 21.754 29.8692 21.53C30.0559 21.2967 30.2005 21.0027 30.3032 20.648C30.4152 20.284 30.4712 19.8547 30.4712 19.36V15.874H31.6192V20.872C31.6192 21.2547 31.6239 21.6327 31.6332 22.006C31.6425 22.37 31.6612 22.7013 31.6892 23H30.5832C30.5645 22.832 30.5505 22.6313 30.5412 22.398C30.5319 22.1647 30.5272 21.9547 30.5272 21.768H30.4992ZM35.6994 15.916H37.6034V16.826H35.6994V20.354C35.6994 20.634 35.7181 20.8907 35.7554 21.124C35.7928 21.348 35.8581 21.5393 35.9514 21.698C36.0448 21.8473 36.1708 21.964 36.3294 22.048C36.4881 22.132 36.6888 22.174 36.9314 22.174C37.1834 22.174 37.4354 22.118 37.6874 22.006L37.7294 22.916C37.5708 22.9627 37.4028 23 37.2254 23.028C37.0574 23.0653 36.8801 23.084 36.6934 23.084C36.2734 23.084 35.9281 23.028 35.6574 22.916C35.3868 22.7947 35.1674 22.6267 34.9994 22.412C34.8408 22.188 34.7288 21.9267 34.6634 21.628C34.6074 21.32 34.5794 20.984 34.5794 20.62V16.826H32.9974V15.916H34.5794V14.264L35.6994 13.886V15.916ZM40.9358 15.916H42.8398V16.826H40.9358V20.354C40.9358 20.634 40.9544 20.8907 40.9918 21.124C41.0291 21.348 41.0944 21.5393 41.1878 21.698C41.2811 21.8473 41.4071 21.964 41.5658 22.048C41.7244 22.132 41.9251 22.174 42.1678 22.174C42.4198 22.174 42.6718 22.118 42.9238 22.006L42.9658 22.916C42.8071 22.9627 42.6391 23 42.4618 23.028C42.2938 23.0653 42.1164 23.084 41.9298 23.084C41.5098 23.084 41.1644 23.028 40.8938 22.916C40.6231 22.7947 40.4038 22.6267 40.2358 22.412C40.0771 22.188 39.9651 21.9267 39.8998 21.628C39.8438 21.32 39.8158 20.984 39.8158 20.62V16.826H38.2338V15.916H39.8158V14.264L40.9358 13.886V15.916ZM47.6281 15.72C48.1321 15.72 48.5987 15.8133 49.0281 16C49.4574 16.1773 49.8261 16.434 50.1341 16.77C50.4421 17.0967 50.6801 17.4933 50.8481 17.96C51.0254 18.4173 51.1141 18.9213 51.1141 19.472C51.1141 20.0227 51.0254 20.522 50.8481 20.97C50.6801 21.418 50.4374 21.8053 50.1201 22.132C49.8121 22.4587 49.4387 22.7107 49.0001 22.888C48.5707 23.0653 48.0947 23.154 47.5721 23.154C47.0587 23.154 46.5827 23.0653 46.1441 22.888C45.7147 22.7013 45.3414 22.4493 45.0241 22.132C44.7161 21.8053 44.4734 21.418 44.2961 20.97C44.1187 20.5127 44.0301 20.0133 44.0301 19.472C44.0301 18.912 44.1187 18.4033 44.2961 17.946C44.4734 17.4887 44.7161 17.0967 45.0241 16.77C45.3414 16.434 45.7194 16.1773 46.1581 16C46.6061 15.8133 47.0961 15.72 47.6281 15.72ZM47.5441 16.658C47.1987 16.658 46.8814 16.728 46.5921 16.868C46.3121 16.9987 46.0694 17.19 45.8641 17.442C45.6681 17.6847 45.5141 17.9787 45.4021 18.324C45.2901 18.6693 45.2341 19.052 45.2341 19.472C45.2341 19.892 45.2901 20.27 45.4021 20.606C45.5141 20.942 45.6727 21.2313 45.8781 21.474C46.0834 21.7073 46.3261 21.8893 46.6061 22.02C46.8954 22.1507 47.2174 22.216 47.5721 22.216C47.9174 22.216 48.2347 22.1507 48.5241 22.02C48.8134 21.8893 49.0607 21.7027 49.2661 21.46C49.4714 21.2173 49.6301 20.928 49.7421 20.592C49.8541 20.256 49.9101 19.878 49.9101 19.458C49.9101 19.038 49.8541 18.6553 49.7421 18.31C49.6301 17.9647 49.4667 17.6707 49.2521 17.428C49.0467 17.1853 48.7994 16.9987 48.5101 16.868C48.2207 16.728 47.8987 16.658 47.5441 16.658ZM54.1723 17.106C54.4336 16.6767 54.765 16.3407 55.1663 16.098C55.577 15.846 56.053 15.72 56.5943 15.72C57.089 15.72 57.4996 15.7993 57.8263 15.958C58.1623 16.1167 58.4283 16.336 58.6243 16.616C58.8203 16.896 58.9603 17.232 59.0443 17.624C59.1283 18.016 59.1703 18.4453 59.1703 18.912V23H58.0223V19.36C58.0223 18.9587 57.999 18.5947 57.9523 18.268C57.915 17.932 57.8356 17.6473 57.7143 17.414C57.593 17.1713 57.4203 16.9893 57.1963 16.868C56.9723 16.7373 56.683 16.672 56.3283 16.672C56.0203 16.672 55.7356 16.728 55.4743 16.84C55.213 16.952 54.989 17.1247 54.8023 17.358C54.6156 17.582 54.4663 17.876 54.3543 18.24C54.2516 18.5947 54.2003 19.0193 54.2003 19.514V23H53.0523V18.002C53.0523 17.6193 53.0476 17.246 53.0383 16.882C53.029 16.5087 53.0103 16.1727 52.9823 15.874H54.0883C54.107 16.042 54.121 16.2427 54.1303 16.476C54.1396 16.7093 54.1443 16.9193 54.1443 17.106H54.1723ZM66.4611 15.916H68.3651V16.826H66.4611V20.354C66.4611 20.634 66.4798 20.8907 66.5171 21.124C66.5545 21.348 66.6198 21.5393 66.7131 21.698C66.8065 21.8473 66.9325 21.964 67.0911 22.048C67.2498 22.132 67.4505 22.174 67.6931 22.174C67.9451 22.174 68.1971 22.118 68.4491 22.006L68.4911 22.916C68.3325 22.9627 68.1645 23 67.9871 23.028C67.8191 23.0653 67.6418 23.084 67.4551 23.084C67.0351 23.084 66.6898 23.028 66.4191 22.916C66.1485 22.7947 65.9291 22.6267 65.7611 22.412C65.6025 22.188 65.4905 21.9267 65.4251 21.628C65.3691 21.32 65.3411 20.984 65.3411 20.62V16.826H63.7591V15.916H65.3411V14.264L66.4611 13.886V15.916ZM70.7175 19.682C70.7361 20.4753 70.9741 21.096 71.4315 21.544C71.8888 21.9827 72.5001 22.202 73.2655 22.202C73.6575 22.202 74.0121 22.16 74.3295 22.076C74.6468 21.9827 74.9641 21.852 75.2815 21.684L75.3235 22.734C74.6888 23.014 73.9841 23.154 73.2095 23.154C72.0335 23.154 71.1281 22.8227 70.4935 22.16C69.8681 21.488 69.5555 20.564 69.5555 19.388C69.5555 18.828 69.6348 18.324 69.7935 17.876C69.9521 17.428 70.1761 17.0453 70.4655 16.728C70.7641 16.4013 71.1141 16.154 71.5155 15.986C71.9261 15.8087 72.3788 15.72 72.8735 15.72C73.7975 15.72 74.5208 16.0047 75.0435 16.574C75.5755 17.1433 75.8415 18.016 75.8415 19.192C75.8415 19.2573 75.8368 19.3367 75.8275 19.43C75.8275 19.5233 75.8228 19.6073 75.8135 19.682H70.7175ZM74.7215 18.8C74.7215 18.0533 74.5488 17.5027 74.2035 17.148C73.8675 16.784 73.4148 16.602 72.8455 16.602C72.2761 16.602 71.7955 16.7933 71.4035 17.176C71.0208 17.5493 70.8015 18.0907 70.7455 18.8H74.7215ZM80.0254 18.702C80.1467 18.4873 80.2774 18.2493 80.4174 17.988C80.5667 17.7267 80.6881 17.526 80.7814 17.386L81.7194 15.874H82.9794L80.6834 19.262L83.2034 23H81.8454L80.8094 21.334C80.7534 21.2407 80.6834 21.1333 80.5994 21.012C80.5247 20.8813 80.4454 20.7507 80.3614 20.62C80.2774 20.48 80.1981 20.3493 80.1234 20.228C80.0487 20.0973 79.9927 19.99 79.9554 19.906C79.9087 19.99 79.8481 20.0973 79.7734 20.228C79.6987 20.3493 79.6194 20.48 79.5354 20.62C79.4514 20.76 79.3721 20.8953 79.2974 21.026C79.2227 21.1473 79.1574 21.25 79.1014 21.334L78.0654 23H76.7214L79.2834 19.262L76.9174 15.874H78.3034L79.2554 17.386C79.2927 17.4607 79.3441 17.5493 79.4094 17.652C79.4747 17.7547 79.5447 17.8667 79.6194 17.988C79.6941 18.1093 79.7641 18.2307 79.8294 18.352C79.9041 18.4733 79.9694 18.59 80.0254 18.702ZM86.2717 15.916H88.1757V16.826H86.2717V20.354C86.2717 20.634 86.2904 20.8907 86.3277 21.124C86.365 21.348 86.4304 21.5393 86.5237 21.698C86.617 21.8473 86.743 21.964 86.9017 22.048C87.0604 22.132 87.261 22.174 87.5037 22.174C87.7557 22.174 88.0077 22.118 88.2597 22.006L88.3017 22.916C88.143 22.9627 87.975 23 87.7977 23.028C87.6297 23.0653 87.4524 23.084 87.2657 23.084C86.8457 23.084 86.5004 23.028 86.2297 22.916C85.959 22.7947 85.7397 22.6267 85.5717 22.412C85.413 22.188 85.301 21.9267 85.2357 21.628C85.1797 21.32 85.1517 20.984 85.1517 20.62V16.826H83.5697V15.916H85.1517V14.264L86.2717 13.886V15.916Z" fill="black"/>
<rect x="0.5" y="0.5" width="104" height="38" rx="4.5" stroke="black" stroke-linejoin="round"/>
</svg>
